<?xml version="1.0" encoding="UTF-8" standalone="no"?>
<svg
   width="256"
   height="256"
   viewBox="0 0 16 16"
   fill="none"
   version="1.1"
   id="svg15"
   sodipodi:docname="info.svg"
   inkscape:version="1.1.2 (0a00cf5339, 2022-02-04)"
   xmlns:inkscape="http://www.inkscape.org/namespaces/inkscape"
   xmlns:sodipodi="http://sodipodi.sourceforge.net/DTD/sodipodi-0.dtd"
   xmlns="http://www.w3.org/2000/svg"
   xmlns:svg="http://www.w3.org/2000/svg">
  <sodipodi:namedview
     id="namedview17"
     pagecolor="#ffffff"
     bordercolor="#666666"
     borderopacity="1.0"
     inkscape:pageshadow="2"
     inkscape:pageopacity="0.0"
     inkscape:pagecheckerboard="true"
     showgrid="false"
     inkscape:zoom="0.82128905"
     inkscape:cx="186.90131"
     inkscape:cy="6.6967896"
     inkscape:window-width="1920"
     inkscape:window-height="1029"
     inkscape:window-x="1920"
     inkscape:window-y="25"
     inkscape:window-maximized="1"
     inkscape:current-layer="svg15"
     fit-margin-top="0"
     fit-margin-left="0"
     fit-margin-right="0"
     fit-margin-bottom="0" />
  <path
     fill-rule="evenodd"
     clip-rule="evenodd"
     d="M 16,8.000235 C 16,12.418413 12.417788,16 8,16 3.582212,16 0,12.418413 0,8.000235 0,3.581587 3.582212,0 8,0 c 4.417788,0 8,3.581587 8,8.000235 z"
     fill="#2268ab"
     id="path4"
     style="stroke:none;stroke-width:2.94131;stroke-miterlimit:4;stroke-dasharray:none;paint-order:stroke fill markers" />
  <path
     fill-rule="evenodd"
     clip-rule="evenodd"
     d="M 9.2924,6.5304 7.1329,7.9242 C 7.0585,8.4431 6.9661,8.9593 6.8737,9.4759 6.8235,9.7561 6.7733,10.0365 6.726,10.3174 6.6764,10.6099 6.6313,10.903 6.5863,11.196 c -0.0361,0.2344 -0.0721,0.4687 -0.1105,0.7028 -0.0587,0.3606 0.0614,0.7119 0.2684,0.9947 0.2402,0.3282 0.5956,0.5595 0.9048,0.6112 0.3206,0.0449 0.6407,0.0655 0.961,0.0616 0.7198,-9e-4 1.6779,-0.0315 0.499,-1.9617 C 9.1429,11.3801 9.1884,11.1409 9.2826,10.6422 9.4494,9.7242 9.6186,8.8066 9.8201,7.7406 9.868,7.5146 9.9397,7.2837 9.2924,6.5304 Z M 8.7464,3.3182 C 8.3462,3.3006 7.9762,3.4472 7.702,3.6983 7.4278,3.9495 7.2495,4.3052 7.2319,4.706 7.2143,5.1068 7.3609,5.4768 7.612,5.751 7.8631,6.0252 8.2189,6.2036 8.6198,6.2212 9.0206,6.2387 9.3906,6.0921 9.6648,5.841 9.9382,5.5904 10.1172,5.236 10.1358,4.8041 10.147,4.4066 9.9976,4.0434 9.7465,3.7753 9.4953,3.5069 9.1422,3.3337 8.7464,3.3182 Z"
     fill="#ffffff"
     stroke="#1455b1"
     stroke-width="0.25"
     id="path6" />
  <defs
     id="defs13">
    <clipPath
       id="clip0">
      <rect
         width="32"
         height="32"
         fill="#ffffff"
         id="rect10"
         x="0"
         y="0" />
    </clipPath>
  </defs>
</svg>
