<?xml version="1.0" encoding="UTF-8" standalone="no"?>
<svg
   width="512"
   height="512"
   viewBox="0 0 32 32"
   fill="none"
   version="1.1"
   id="svg13"
   sodipodi:docname="ui-dark-plain-monochrom-state-sync.svg"
   inkscape:version="1.1.2 (0a00cf5339, 2022-02-04)"
   xmlns:inkscape="http://www.inkscape.org/namespaces/inkscape"
   xmlns:sodipodi="http://sodipodi.sourceforge.net/DTD/sodipodi-0.dtd"
   xmlns="http://www.w3.org/2000/svg"
   xmlns:svg="http://www.w3.org/2000/svg">
  <sodipodi:namedview
     id="namedview15"
     pagecolor="#ffffff"
     bordercolor="#666666"
     borderopacity="1.0"
     inkscape:pageshadow="2"
     inkscape:pageopacity="0.0"
     inkscape:pagecheckerboard="true"
     showgrid="false"
     inkscape:zoom="1.4277344"
     inkscape:cx="251.09713"
     inkscape:cy="256"
     inkscape:window-width="1920"
     inkscape:window-height="1029"
     inkscape:window-x="1920"
     inkscape:window-y="25"
     inkscape:window-maximized="1"
     inkscape:current-layer="svg13" />
  <path
     fill-rule="evenodd"
     clip-rule="evenodd"
     d="m 18,15 c 4.6939,0 8.5,3.8051 8.5,8.4995 0,4.6939 -3.8061,8.499 -8.5,8.499 -4.6939,0 -8.5,-3.8051 -8.5,-8.499 C 9.5,18.8051 13.3061,15 18,15 Z m -1.9293,8.5627 -1.3519,0.2231 -1.9475,0.3431 0.2975,3.3393 0.6914,-0.9009 c 1.0162,1.3807 2.617,2.1974 4.333,2.1974 0.3116,0 0.6259,-0.0278 0.935,-0.0823 1.0953,-0.1927 2.0884,-0.7118 2.8731,-1.4991 0.7658,-0.7695 1.2781,-1.7375 1.4803,-2.7987 l 0.0513,-0.2698 -2.1277,0.375 -0.0383,0.1006 c -0.4253,1.1105 -1.4158,1.9282 -2.5834,2.1345 -0.1954,0.0346 -0.3949,0.0519 -0.5909,0.0519 -1.2875,0 -2.4681,-0.7391 -3.038,-1.8915 z M 18.0965,18 c -0.3127,0 -0.6275,0.0283 -0.9376,0.0828 -2.201,0.3876 -3.9527,2.1272 -4.3591,4.3277 l -0.0498,0.2682 2.1225,-0.3751 0.0377,-0.1011 c 0.4211,-1.1267 1.4148,-1.9559 2.5944,-2.1633 0.1949,-0.0346 0.3939,-0.0524 0.5909,-0.0524 1.2948,0 2.4786,0.7443 3.0454,1.9062 l -1.0235,1.3315 3.3126,-0.5794 v -10e-4 l 0.0068,-5e-4 -0.3175,-3.3231 -0.683,0.8868 C 21.4222,18.8208 19.8188,18 18.0965,18 Z"
     fill="#ffffff"
     id="path4" />
  <defs
     id="defs11">
    <clipPath
       id="clip0">
      <rect
         width="32"
         height="32"
         fill="white"
         id="rect8" />
    </clipPath>
  </defs>
</svg>
