<?xml version="1.0" encoding="UTF-8" standalone="no"?>
<svg
   width="512"
   height="512"
   viewBox="0 0 32 32"
   fill="none"
   version="1.1"
   id="svg15"
   sodipodi:docname="ui-dark-plain-color-base.svg"
   inkscape:version="1.1.2 (0a00cf5339, 2022-02-04)"
   xmlns:inkscape="http://www.inkscape.org/namespaces/inkscape"
   xmlns:sodipodi="http://sodipodi.sourceforge.net/DTD/sodipodi-0.dtd"
   xmlns="http://www.w3.org/2000/svg"
   xmlns:svg="http://www.w3.org/2000/svg">
  <sodipodi:namedview
     id="namedview17"
     pagecolor="#ffffff"
     bordercolor="#666666"
     borderopacity="1.0"
     inkscape:pageshadow="2"
     inkscape:pageopacity="0.0"
     inkscape:pagecheckerboard="true"
     showgrid="false"
     inkscape:zoom="1.1614781"
     inkscape:cx="182.09556"
     inkscape:cy="199.31499"
     inkscape:window-width="1920"
     inkscape:window-height="1029"
     inkscape:window-x="1920"
     inkscape:window-y="25"
     inkscape:window-maximized="1"
     inkscape:current-layer="svg15" />
  <path
     fill-rule="evenodd"
     clip-rule="evenodd"
     d="m 28.8055,12.498 c -0.254,-2.504 -2.315,-4.456 -4.82,-4.456 -0.026,0 -0.05,0.002 -0.074,0.002 -0.075,-2.477 -2.051,-4.462 -4.482,-4.462 -0.182,0 -0.361,0.013 -0.538,0.034 C 18.4515,1.548 16.6585,0 14.5125,0 c -1.763,0 -3.286,1.044 -4.019,2.563 -0.418,-0.341 -0.945,-0.545 -1.52,-0.545 -1.352,0 -2.448,1.126 -2.448,2.514 0,0.541 0.168,1.041 0.451,1.451 C 6.0145,6.601 5.2785,7.556 4.9255,8.687 4.7805,8.673 4.6335,8.665 4.4845,8.665 2.0075,8.665 -4.99725e-4,10.727 -4.99725e-4,13.27 -4.99725e-4,15.814 2.0075,18 4.4845,18 h 4.588 c 1.852,-2.994 5.155,-5 8.927,-5 3.772,0 7.076,2.006 8.928,5 h 2.508 c 1.416,0 2.564,-1.497 2.564,-2.951 0,-1.455 -1.148,-2.634 -2.564,-2.634 -0.218,0 -0.428,0.031 -0.63,0.083 z"
     id="path2"
     style="fill:#ffffff;fill-opacity:1" />
  <defs
     id="defs13">
    <clipPath
       id="clip0">
      <rect
         width="32"
         height="32"
         fill="white"
         id="rect10" />
    </clipPath>
  </defs>
</svg>
