<?xml version="1.0" encoding="UTF-8" standalone="no"?>
<svg
   width="512"
   height="512"
   viewBox="0 0 32 32"
   fill="none"
   version="1.1"
   id="svg13"
   sodipodi:docname="ui-dark-plain-monochrom-state-info.svg"
   inkscape:version="1.1.2 (0a00cf5339, 2022-02-04)"
   xmlns:inkscape="http://www.inkscape.org/namespaces/inkscape"
   xmlns:sodipodi="http://sodipodi.sourceforge.net/DTD/sodipodi-0.dtd"
   xmlns="http://www.w3.org/2000/svg"
   xmlns:svg="http://www.w3.org/2000/svg">
  <sodipodi:namedview
     id="namedview15"
     pagecolor="#ffffff"
     bordercolor="#666666"
     borderopacity="1.0"
     inkscape:pageshadow="2"
     inkscape:pageopacity="0.0"
     inkscape:pagecheckerboard="true"
     showgrid="false"
     inkscape:zoom="1.4277344"
     inkscape:cx="251.09713"
     inkscape:cy="256"
     inkscape:window-width="1920"
     inkscape:window-height="1029"
     inkscape:window-x="1920"
     inkscape:window-y="25"
     inkscape:window-maximized="1"
     inkscape:current-layer="svg13" />
  <path
     fill-rule="evenodd"
     clip-rule="evenodd"
     d="m 18,15 c 4.6939,0 8.5,3.8051 8.5,8.4995 0,4.6939 -3.8061,8.499 -8.5,8.499 -4.6939,0 -8.5,-3.8051 -8.5,-8.499 C 9.5,18.8051 13.3061,15 18,15 Z m 0.7722,6.6947 -0.0043,3e-4 -2.6263,4e-4 c -0.0949,9e-4 -0.1893,0.0142 -0.2808,0.0395 -0.1116,0.0232 -0.1968,0.1139 -0.2135,0.2266 -0.0309,0.1226 0.0308,0.2498 0.1462,0.3013 0.1406,0.0656 0.2915,0.1063 0.446,0.1199 0.4066,0.019 0.5704,0.1974 0.509,0.6157 -0.1141,0.7823 -0.2677,1.5588 -0.3993,2.3398 -0.0892,0.5264 -0.1638,1.0543 -0.25,1.5808 -0.1156,0.7094 0.5454,1.3746 1.0704,1.4624 0.3111,0.0435 0.6249,0.0637 0.9389,0.0599 0.6728,-9e-4 1.3157,-0.279 1.7767,-0.7692 0.0838,-0.0772 0.1467,-0.1742 0.1828,-0.2822 0.0177,-0.0944 -0.0045,-0.1918 -0.0614,-0.2691 -0.0686,-0.043 -0.1534,-0.0522 -0.2296,-0.0249 -0.1199,0.0395 -0.2266,0.1214 -0.3436,0.1727 -0.1368,0.0636 -0.2799,0.1128 -0.427,0.1463 -0.2236,0.0548 -0.4493,-0.0821 -0.5041,-0.3055 -0.0053,-0.0218 -0.0088,-0.0439 -0.0107,-0.066 -0.0246,-0.1361 -0.029,-0.275 -0.0132,-0.4125 0.0498,-0.3393 0.12,-0.6756 0.1814,-1.012 0.1667,-0.9173 0.3359,-1.8352 0.5074,-2.7536 0.0468,-0.2515 0.1258,-0.4987 0.0731,-0.7634 -0.0168,-0.2417 -0.2263,-0.4239 -0.4681,-0.4072 z m -0.5307,-3.2516 c -0.7326,-0.0322 -1.3527,0.5358 -1.3847,1.2683 -0.0322,0.7328 0.5357,1.3527 1.2685,1.3848 0.7326,0.0321 1.3525,-0.5358 1.3847,-1.2684 4e-4,-0.0097 7e-4,-0.0195 9e-4,-0.0291 0.0205,-0.7232 -0.5465,-1.3273 -1.2694,-1.3527 z"
     fill="#ffffff"
     id="path4" />
  <defs
     id="defs11">
    <clipPath
       id="clip0">
      <rect
         width="32"
         height="32"
         fill="white"
         id="rect8" />
    </clipPath>
  </defs>
</svg>
