<?xml version="1.0" encoding="UTF-8" standalone="no"?>
<svg
   width="512"
   height="512"
   viewBox="0 0 32 32"
   fill="none"
   version="1.1"
   id="svg13"
   sodipodi:docname="ui-dark-plain-monochrom-state-warning.svg"
   inkscape:version="1.1.2 (0a00cf5339, 2022-02-04)"
   xmlns:inkscape="http://www.inkscape.org/namespaces/inkscape"
   xmlns:sodipodi="http://sodipodi.sourceforge.net/DTD/sodipodi-0.dtd"
   xmlns="http://www.w3.org/2000/svg"
   xmlns:svg="http://www.w3.org/2000/svg">
  <sodipodi:namedview
     id="namedview15"
     pagecolor="#ffffff"
     bordercolor="#666666"
     borderopacity="1.0"
     inkscape:pageshadow="2"
     inkscape:pageopacity="0.0"
     inkscape:pagecheckerboard="true"
     showgrid="false"
     inkscape:zoom="1.4277344"
     inkscape:cx="251.09713"
     inkscape:cy="256"
     inkscape:window-width="1920"
     inkscape:window-height="1029"
     inkscape:window-x="1920"
     inkscape:window-y="25"
     inkscape:window-maximized="1"
     inkscape:current-layer="svg13" />
  <path
     fill-rule="evenodd"
     clip-rule="evenodd"
     d="m 18,15 c 4.6939,0 8.5,3.8051 8.5,8.4995 0,4.6939 -3.8061,8.499 -8.5,8.499 -4.6939,0 -8.5,-3.8051 -8.5,-8.499 C 9.5,18.8051 13.3061,15 18,15 Z m 0,11.5874 c -0.6798,0 -1.1597,0.4946 -1.1597,1.2062 C 16.8251,28.4899 17.3036,29 18,29 18.7113,29 19.176,28.4899 19.176,27.7936 19.1597,27.082 18.7113,26.5874 18,26.5874 Z M 19.0046,18 h -2.0092 c -0.1109,0 -0.2168,0.0451 -0.2936,0.1249 -0.0766,0.0799 -0.1179,0.1877 -0.1136,0.2983 l 0.2781,7.206 c 0.0087,0.2186 0.1885,0.3916 0.4072,0.3916 h 1.453 c 0.2189,0 0.3987,-0.173 0.4071,-0.3916 l 0.2782,-7.206 C 19.4161,18.3126 19.3751,18.2048 19.2982,18.1249 19.2214,18.0451 19.1157,18 19.0046,18 Z"
     fill="#ffffff"
     id="path4" />
  <defs
     id="defs11">
    <clipPath
       id="clip0">
      <rect
         width="32"
         height="32"
         fill="white"
         id="rect8" />
    </clipPath>
  </defs>
</svg>
