<?xml version="1.0" encoding="UTF-8" standalone="no"?>
<svg
   width="512"
   height="512"
   viewBox="0 0 32 32"
   fill="none"
   version="1.1"
   id="svg13"
   sodipodi:docname="ui-light-plain-monochrom-base.svg"
   inkscape:version="1.1.2 (0a00cf5339, 2022-02-04)"
   xmlns:inkscape="http://www.inkscape.org/namespaces/inkscape"
   xmlns:sodipodi="http://sodipodi.sourceforge.net/DTD/sodipodi-0.dtd"
   xmlns="http://www.w3.org/2000/svg"
   xmlns:svg="http://www.w3.org/2000/svg">
  <sodipodi:namedview
     id="namedview15"
     pagecolor="#ffffff"
     bordercolor="#666666"
     borderopacity="1.0"
     inkscape:pageshadow="2"
     inkscape:pageopacity="0.0"
     inkscape:pagecheckerboard="0"
     showgrid="false"
     inkscape:zoom="1.1614781"
     inkscape:cx="242.79407"
     inkscape:cy="294.02189"
     inkscape:window-width="1920"
     inkscape:window-height="1029"
     inkscape:window-x="1920"
     inkscape:window-y="25"
     inkscape:window-maximized="1"
     inkscape:current-layer="svg13" />
  <path
     fill-rule="evenodd"
     clip-rule="evenodd"
     d="m 29.4355,12.415 c -0.218,0 -0.428,0.031 -0.63,0.083 -0.254,-2.504 -2.315,-4.456 -4.82,-4.456 -0.026,0 -0.05,0.002 -0.074,0.002 -0.075,-2.477 -2.051,-4.462 -4.482,-4.462 -0.182,0 -0.361,0.013 -0.538,0.034 C 18.4515,1.548 16.6585,0 14.5125,0 c -1.763,0 -3.286,1.044 -4.019,2.563 -0.418,-0.341 -0.945,-0.545 -1.52,-0.545 -1.352,0 -2.448,1.126 -2.448,2.514 0,0.541 0.168,1.041 0.451,1.451 -0.962,0.618 -1.698,1.573 -2.051,2.704 -0.145,-0.014 -0.292,-0.022 -0.441,-0.022 -2.477,0 -4.48500354,2.062 -4.48500354,4.605 0,2.544 2.00800354,4.73 4.48500354,4.73 h 4.588 c 1.852,-2.994 5.155,-5 8.927,-5 3.772,0 7.076,2.006 8.928,5 h 2.508 c 1.416,0 2.564,-1.497 2.564,-2.951 0,-1.455 -1.148,-2.634 -2.564,-2.634 z"
     fill="#041e42"
     id="path2" />
  <defs
     id="defs11">
    <clipPath
       id="clip0">
      <rect
         width="32"
         height="32"
         fill="white"
         id="rect8" />
    </clipPath>
  </defs>
</svg>
