<?xml version="1.0" encoding="utf-8"?>
<!-- Generator: Adobe Illustrator 15.0.2, SVG Export Plug-In . SVG Version: 6.00 Build 0)  -->
<!DOCTYPE svg PUBLIC "-//W3C//DTD SVG 1.1//EN" "http://www.w3.org/Graphics/SVG/1.1/DTD/svg11.dtd">
<svg version="1.1" id="Ebene_1" xmlns="http://www.w3.org/2000/svg" xmlns:xlink="http://www.w3.org/1999/xlink" x="0px" y="0px"
	 width="32px" height="32px" viewBox="34 34 32 32" enable-background="new 34 34 32 32" xml:space="preserve">
<path fill="#3A87AD" d="M65.514,57.623L52.931,35.837l-0.005,0.002c-0.157-0.32-0.361-0.621-0.627-0.888
	c-1.27-1.269-3.329-1.269-4.599,0c-0.23,0.23-0.42,0.488-0.563,0.761V35.71L34.562,57.502v0.006
	c-0.198,0.291-0.356,0.619-0.451,0.98c-0.465,1.736,0.564,3.521,2.299,3.984c0.312,0.084,0.628,0.117,0.939,0.107l25.16-0.004
	v-0.004c1.205,0.084,2.407-0.5,3.054-1.613C66.182,59.885,66.123,58.605,65.514,57.623z M51.489,57.729
	c-0.433,0.408-0.939,0.613-1.517,0.613c-0.588,0-1.103-0.205-1.531-0.613c-0.434-0.414-0.65-0.904-0.65-1.477
	c0-0.568,0.217-1.061,0.65-1.48c0.429-0.42,0.943-0.625,1.531-0.625c0.577,0,1.084,0.205,1.517,0.625
	c0.435,0.42,0.651,0.912,0.651,1.48C52.141,56.824,51.924,57.314,51.489,57.729z M52.009,44.987
	c-0.108,0.511-0.249,1.107-0.415,1.794c-0.158,0.646-0.344,1.454-0.542,2.424c-0.208,0.965-0.42,2.163-0.65,3.584H49.53
	c-0.227-1.438-0.443-2.635-0.651-3.593c-0.202-0.954-0.383-1.758-0.541-2.407c-0.146-0.593-0.275-1.173-0.397-1.745
	c-0.121-0.569-0.181-0.996-0.181-1.285c0-0.575,0.213-1.069,0.646-1.482c0.433-0.412,0.949-0.615,1.554-0.615
	c0.597,0,1.115,0.203,1.553,0.615c0.443,0.413,0.665,0.907,0.665,1.482C52.177,44.07,52.118,44.479,52.009,44.987z"/>
</svg>
